# xmcd
#
# Track frame offsets: 
#        225
#        9354
#        15707
#        27249
#        31460
#        41992
#        48229
#        54042
#        61383
#        72225
#        82809
#        93020
#        99580
#        104104
#        111195
#        117413
#        126627
#        141715
#        148943
#        154835
#        160660
#        166137
#        170677
#        176364
#        185850
#
# Disc length: 2658 seconds
#
# Revision: 3
# Processed by: cddbd v1.5.1PL0 Copyright (c) Steve Scherf et al.
# Submitted via: ExactAudioCopy v0.95a4
#
DISCID=610a5f19
DTITLE=Michal Tucny - Kdyby tady byla ...
DYEAR=1998
DGENRE=Country
TTITLE0=Kdyby tady byla takova panenka
TTITLE1=Zdalo se mne ma panenko
TTITLE2=Nezachazej slunce
TTITLE3=Jakzivy jste nevideli
TTITLE4=Kacenko, Kacenko
TTITLE5=Zadnej neveri
TTITLE6=O lasko, lasko
TTITLE7=Jedeme cestickou ouzkou
TTITLE8=Ach ja ztrapeny
TTITLE9=Tam na tom habrovecku
TTITLE10=Copak ti hubicko
TTITLE11=Vzdycky jsem myslival
TTITLE12=Tu je kratky
TTITLE13=Nezente se chaso mlada 
TTITLE14=Ta nase laska
TTITLE15=U nasich staju
TTITLE16=Ty musis ma mila
TTITLE17=Tece voda tece
TTITLE18=Ta nase kacenka
TTITLE19=Psenicku jsem si dal zasit
TTITLE20=Koralicka brantvojn
TTITLE21=Cert vi co mam za naturu
TTITLE22=Kdyby bylo pivo
TTITLE23=Vstavej ma panenko
TTITLE24=Proc bychom veseli nebyly
EXTD=
EXTT0=
EXTT1=
EXTT2=
EXTT3=
EXTT4=
EXTT5=
EXTT6=
EXTT7=
EXTT8=
EXTT9=
EXTT10=
EXTT11=
EXTT12=
EXTT13=
EXTT14=
EXTT15=
EXTT16=
EXTT17=
EXTT18=
EXTT19=
EXTT20=
EXTT21=
EXTT22=
EXTT23=
EXTT24=
PLAYORDER=
